<svg width="78" height="36" viewBox="0 0 78 36" fill="none" xmlns="http://www.w3.org/2000/svg">
<g id="cnn_logo.svg" clip-path="url(#clip0_2410_1747)">
<path id="Vector" d="M24.2667 10.2857H18.2C16.1313 10.2857 14.1474 11.0985 12.6846 12.5452C11.2218 13.9919 10.4 15.954 10.4 18C10.4 20.046 11.2218 22.0081 12.6846 23.4548C14.1474 24.9015 16.1313 25.7143 18.2 25.7143H24.986C25.2549 25.7143 25.5128 25.6086 25.703 25.4206C25.8932 25.2325 26 24.9774 26 24.7114V7.00286C26.0018 5.45985 26.5189 3.96065 27.4709 2.73817C28.4228 1.5157 29.7564 0.638399 31.2643 0.242589C32.7723 -0.153222 34.3702 -0.0453861 35.8098 0.549343C37.2494 1.14407 38.4501 2.19239 39.2253 3.53143L46.8 16.6371V7.00286C46.8018 5.45985 47.3189 3.96065 48.2709 2.73817C49.2228 1.5157 50.5564 0.638399 52.0643 0.242589C53.5723 -0.153222 55.1702 -0.0453861 56.6098 0.549343C58.0494 1.14407 59.2501 2.19239 60.0253 3.53143L67.6 16.6371V0H71.9333L72.8 0.857143L73.6667 0H78V28.9971C77.9982 30.5401 77.4811 32.0394 76.5291 33.2618C75.5772 34.4843 74.2436 35.3616 72.7357 35.7574C71.2277 36.1532 69.6298 36.0454 68.1902 35.4507C66.7506 34.8559 65.5499 33.8076 64.7747 32.4686L57.2 19.3629V28.9971C57.1982 30.5401 56.6811 32.0394 55.7291 33.2618C54.7772 34.4843 53.4436 35.3616 51.9357 35.7574C50.4277 36.1532 48.8298 36.0454 47.3902 35.4507C45.9506 34.8559 44.7499 33.8076 43.9747 32.4686L36.4 19.3629V28.9971C36.4 30.8544 35.654 32.6356 34.3261 33.9489C32.9982 35.2622 31.1972 36 29.3193 36H18.2C13.3731 36 8.74382 34.1036 5.33066 30.7279C1.91749 27.3523 0 22.7739 0 18C0 13.2261 1.91749 8.64773 5.33066 5.27208C8.74382 1.89642 13.3731 0 18.2 0H24.2667V4.28571L23.4 5.14286L24.2667 6V10.2857Z" fill="#E7E3FF"/>
<path id="Vector_2" d="M24.2659 5.14286H18.1992C14.7514 5.14286 11.4448 6.49745 9.00683 8.90863C6.56886 11.3198 5.19922 14.5901 5.19922 18C5.19922 21.4099 6.56886 24.6802 9.00683 27.0914C11.4448 29.5026 14.7514 30.8571 18.1992 30.8571H29.3186C29.5655 30.8571 29.8101 30.809 30.0383 30.7156C30.2664 30.6221 30.4737 30.4851 30.6484 30.3124C30.823 30.1396 30.9615 29.9346 31.0561 29.7089C31.1506 29.4833 31.1992 29.2414 31.1992 28.9971V7.00286C31.1999 6.59358 31.3371 6.19595 31.5895 5.87161C31.8419 5.54727 32.1954 5.31432 32.5953 5.20886C32.9952 5.10341 33.419 5.13133 33.8012 5.28831C34.1834 5.44529 34.5025 5.72256 34.7092 6.07714L48.4892 29.9229C48.6959 30.2774 49.0151 30.5547 49.3972 30.7117C49.7794 30.8687 50.2033 30.8966 50.6031 30.7911C51.003 30.6857 51.3565 30.4527 51.6089 30.1284C51.8613 29.804 51.9985 29.4064 51.9992 28.9971V7.00286C51.9999 6.59358 52.1371 6.19595 52.3895 5.87161C52.6419 5.54727 52.9954 5.31432 53.3953 5.20886C53.7952 5.10341 54.219 5.13133 54.6012 5.28831C54.9834 5.44529 55.3025 5.72256 55.5092 6.07714L69.2892 29.9229C69.4959 30.2774 69.815 30.5547 70.1972 30.7117C70.5794 30.8687 71.0033 30.8966 71.4031 30.7911C71.803 30.6857 72.1565 30.4527 72.4089 30.1284C72.6613 29.804 72.7985 29.4064 72.7992 28.9971V0" stroke="#FF4800" stroke-width="3"/>
</g>
<defs>
<clipPath id="clip0_2410_1747">
<rect width="78" height="36" fill="white"/>
</clipPath>
</defs>
</svg>
