<svg width="78" height="45" viewBox="0 0 78 45" fill="none" xmlns="http://www.w3.org/2000/svg">
<g clip-path="url(#clip0_2410_355)">
<path fill-rule="evenodd" clip-rule="evenodd" d="M18.8882 8.00857C17.6647 2.21196 17.2824 1.98315 14.5294 1.83061V0.839082H26.8412V1.83061C23.4765 2.13569 23.4 2.13569 24.6235 8.92383L28.6765 30.356L33.4941 7.32213C34.4882 2.59332 34.1059 2.13569 30.9706 1.90688L29.9765 1.83061V0.839082H38.7706V1.83061C36.0941 2.05942 36.0941 2.74586 35.0235 7.77976L27.1471 45.0001H26.3824L19.6529 11.6696L12.5412 45.0001H11.7765L3.74706 5.94925C3.05882 2.51705 2.90588 1.98315 0 1.83061V0.839082H12.0059V1.83061C8.94706 2.13569 8.87059 2.44078 10.0941 8.92383L14.2235 30.2035L18.8882 8.00857ZM50.9294 44.7713C46.5706 44.7713 43.9706 40.7289 42.9765 40.7289C41.9059 40.7289 40.6824 43.017 40.3 44.0086H39.3824V29.6696H40.3C42.9765 37.5255 47.2588 43.7035 50.7765 43.7035C52.8412 43.7035 54.1412 41.7967 54.1412 38.9747C54.1412 28.6018 39.6118 21.8899 39.6118 9.15264C39.6118 3.9662 43.2824 -0.0761719 47.2588 -0.0761719C50.8529 -0.0761719 52.8412 2.82213 53.9882 2.82213C54.6 2.82213 55.0588 2.36451 55.8235 0.533998H56.5118V13.3476H55.5941C53.9118 7.16959 50.4706 0.915354 47.1059 0.915354C45.0412 0.915354 43.5118 2.82213 43.5118 5.64417C43.5118 15.6357 58.0412 21.9662 58.0412 35.1611C58.1176 40.6526 54.7529 44.7713 50.9294 44.7713ZM65.9941 44.7713C61.5588 44.7713 59.8 42.0255 59.8 39.356C59.8 36.6865 61.4059 33.9408 63.8529 33.9408C66.4529 33.9408 67.5235 36.534 66.3 38.3645C65.3059 39.9662 62.6294 40.1187 62.6294 41.3391C62.6294 43.2459 64.2353 43.7035 65.5353 43.7035C69.3588 43.7035 69.1294 41.3391 69.1294 33.2543V4.65264C69.1294 2.36451 68.5941 1.83061 66.1471 1.83061H65.2294V0.839082H78V1.83061H76.9294C75.6294 1.83061 75.0941 2.36451 75.0941 4.72891V32.7204C75.0941 40.5764 69.4353 44.7713 65.9941 44.7713Z" fill="#FFD8FD"/>
</g>
<defs>
<clipPath id="clip0_2410_355">
<rect width="78" height="45" fill="white"/>
</clipPath>
</defs>
</svg>
