<svg width="150" height="48" viewBox="0 0 150 48" fill="none" xmlns="http://www.w3.org/2000/svg">
<g id="the_guardian_logo.svg" clip-path="url(#clip0_2410_1231)">
<g id="Group">
<path id="Vector" d="M33.7374 25.5663L36.2626 24.2526V4.19368H34.3434L29.6465 10.4589H29.1414L29.3939 3.48632H49.8485L50.1515 10.4589H49.596L44.9495 4.19368H42.9798V24.2021L45.505 25.5663V26.2232H33.7879L33.7374 25.5663ZM52.4242 24.6568V2.47579L50.505 1.71789V1.26316L57.6768 0H58.4343V10.5095L58.5859 10.3074C60.303 8.8421 62.4747 8.03368 64.7475 8.03368C67.8788 8.03368 69.2929 9.8021 69.2929 13.0863V24.7074L70.9596 25.5663V26.2232H61.6162V25.5663L63.3333 24.6568V13.0863C63.3333 11.2674 62.5252 10.56 61.0101 10.56C60.101 10.56 59.2424 10.8126 58.5354 11.3684V24.7074L60.202 25.6168V26.2232H50.8586V25.6168L52.4242 24.6568ZM76.8687 17.8863C77.0707 21.5242 78.6869 24.3537 82.6263 24.3537C84.4949 24.3537 85.8081 23.4947 87.0707 22.8379V23.5958C85.3535 25.6168 82.8283 26.7789 80.202 26.7284C74.1414 26.7284 71.1111 23.3937 71.1111 17.5832C71.1111 11.8737 74.4444 8.33684 79.899 8.33684C85.0505 8.33684 87.7273 10.8632 87.7273 17.6337V17.8358L76.8687 17.8863ZM76.7677 17.0274L82.0707 16.6737C82.0707 12.1263 81.3131 9.09474 79.7475 9.09474C78.0808 9.09474 76.7677 12.6316 76.7677 16.9768M0 35.1158C0 25.4653 6.41414 21.9789 13.5354 21.9789C16.5657 21.9789 19.3939 22.4842 21.0101 23.1411L21.1616 29.9116H20.4545L16.2626 23.3432C15.404 23.04 14.5455 22.8884 13.6364 22.9389C9.84848 22.9389 7.92929 27.3347 7.9798 34.5095C8.0303 43.0989 9.49495 46.9895 13.0303 46.9895C13.7374 46.9895 14.4444 46.8884 15.101 46.6358V37.44L12.8283 36.1263V35.3179H23.9394V36.1768L21.6667 37.44V46.5347C18.9394 47.4947 16.1111 47.9495 13.2323 47.9495C5.15152 47.9495 0 44.16 0 35.1158ZM23.7879 30.5684V30.0632L31.3131 28.7495L32.1212 28.8V43.4526C32.1212 45.2716 32.9798 45.7768 34.3939 45.7768C35.3535 45.7768 36.2121 45.3726 36.8182 44.6653V31.5284L34.798 30.6189V30.0126L42.2222 28.7495L42.9293 28.8505V45.6758L44.9495 46.4842V47.04L37.5758 47.9495L36.8687 47.8989V45.6758H36.6667C35.1515 47.0905 33.1313 47.9495 31.0606 47.9495C27.4747 47.9495 25.7576 45.8274 25.7576 42.6442V31.5284L23.7879 30.5684ZM71.5152 28.6989L72.1212 28.7495V34.2063H72.3232C73.1313 30.2147 74.8485 28.7495 77.0202 28.7495C77.3232 28.7495 77.6263 28.8 77.9293 28.9011V34.4589C77.4242 34.3579 76.9192 34.3074 76.4141 34.3074C75 34.2568 73.6364 34.56 72.3737 35.1158V45.8274L74.0909 46.7874V47.4442H64.3434V46.7874L66.1111 45.8274V31.1747L64.0909 30.5684V30.0632L71.5152 28.6989ZM90.2525 29.1537V23.4442L88.2323 22.6863V22.2316L95.8081 20.8674L96.4646 20.9684V45.6253L98.5859 46.3832V46.9389L91.1111 47.9495L90.5555 47.8989V45.8779H90.3535C89.0909 47.2421 87.2727 48 85.404 47.9495C81.3636 47.9495 78.3838 44.8674 78.3838 38.501C78.3838 31.8316 81.8687 28.5474 87.0707 28.5474C88.1818 28.4968 89.2424 28.6989 90.2525 29.1537ZM90.2525 44.9179V30.2653C89.697 29.8105 88.9899 29.5579 88.2323 29.6084C86.2121 29.6589 84.9495 32.7411 84.9495 38.1474C84.9495 42.9979 85.8586 45.7263 88.4848 45.6253C89.1414 45.6253 89.7475 45.4232 90.2525 44.9179ZM106.818 28.7495H107.475V45.9284L109.192 46.8379V47.4442H99.4949V46.7874L101.212 45.8274V31.4779L99.1919 30.6189V30.0632L106.818 28.7495ZM107.525 24.1011C107.475 25.8695 106.01 27.3347 104.242 27.2842H104.192C102.424 27.2842 101.01 25.8695 101.01 24.1011C101.01 22.3326 102.424 20.9179 104.192 20.9179C106.01 20.8674 107.475 22.2821 107.525 24.1011ZM130.909 45.8779V31.2758L128.889 30.5684V29.8611L136.313 28.4463L137.071 28.5474V30.72H137.273C139.04 29.2042 141.263 28.3453 143.586 28.3453C146.818 28.3453 148.283 29.8611 148.283 33.2968V45.8274L150 46.7874V47.4442H140.303V46.7874L142.071 45.8274V33.701C142.071 31.781 141.263 31.0232 139.697 31.0232C138.788 31.0232 137.879 31.3263 137.172 31.8821V45.8274L138.838 46.7874V47.4442H129.192V46.7874L130.909 45.8779ZM120.152 36.7832V34.3074C120.152 30.6189 119.394 29.4568 117.121 29.4568C116.869 29.4568 116.566 29.4568 116.313 29.4568L112.273 35.0147H111.717V29.9621C113.889 29.2042 116.212 28.8 118.535 28.7495C123.485 28.7495 126.364 30.1137 126.364 34.3074V46.1811L128.131 46.6863V47.1411C127.02 47.6968 125.758 48 124.495 47.9495C122.02 47.9495 120.859 47.141 120.303 45.8274H120.152C119.141 47.2421 117.626 48 115.303 48C112.374 48 110.354 46.181 110.354 42.9979C110.354 39.9663 112.273 38.2484 116.162 37.5411L120.152 36.7832ZM120.152 44.9684V37.5916L118.939 37.6926C116.97 37.8442 116.313 39.0568 116.313 41.8358C116.313 44.8168 117.273 45.5747 118.636 45.5747C119.242 45.6253 119.798 45.3726 120.152 44.9684ZM55.404 36.6821V34.3074C55.404 30.6189 54.596 29.4063 52.3232 29.4063C52.0707 29.4063 51.8182 29.4568 51.5657 29.5074L47.4747 34.9137H46.9697V29.8611C49.1414 29.1032 51.4141 28.7495 53.7374 28.6989C58.6869 28.6989 61.5657 30.0632 61.5657 34.2568V46.1305L63.3333 46.6358V47.0905C62.2222 47.6463 60.9596 47.9495 59.697 47.8989C57.2222 47.8989 56.0606 47.0905 55.505 45.7768H55.3535C54.3434 47.1916 52.8283 47.9495 50.5556 47.9495C47.5758 47.9495 45.6061 46.1305 45.6061 42.9474C45.6061 39.9158 47.4747 38.1979 51.3636 37.4905L55.404 36.6821ZM55.404 44.9179V37.5916L54.1414 37.6926C52.2222 37.8442 51.5151 39.0568 51.5151 41.8358C51.5151 44.8168 52.5252 45.5747 53.8384 45.5747C54.4444 45.6253 55 45.3726 55.404 44.9179Z" fill="#FFD8FD"/>
</g>
</g>
<defs>
<clipPath id="clip0_2410_1231">
<rect width="150" height="48" fill="white"/>
</clipPath>
</defs>
</svg>
