<svg width="150" height="18" viewBox="0 0 150 18" fill="none" xmlns="http://www.w3.org/2000/svg">
<g clip-path="url(#clip0_2078_36260)">
<path d="M63.8566 9.23593C63.8291 10.5284 64.3226 11.7659 65.2548 12.7009C66.1596 13.6084 67.4208 14.1309 68.7094 14.1034C71.3689 14.1034 73.5349 11.9309 73.5349 9.26343C73.5897 7.94343 73.0962 6.67843 72.1914 5.74343C71.2866 4.80843 70.0254 4.31343 68.7094 4.34093C66.0225 4.36843 63.884 6.54093 63.8566 9.23593ZM65.6935 9.23593C65.6935 7.50343 66.9273 5.88093 68.7643 5.88093C70.6012 5.88093 71.835 7.22843 71.835 9.23593C71.8898 10.0884 71.5882 10.9134 71.0125 11.5459C70.4367 12.1784 69.6416 12.5359 68.7917 12.5359C66.9273 12.5909 65.6935 11.1884 65.6935 9.23593Z" fill="#FF4800"/>
<path d="M53.2737 9.23453C53.2188 10.527 53.7123 11.792 54.6445 12.727C55.5767 13.662 56.8105 14.157 58.1265 14.102C59.5796 14.157 60.9779 13.4695 61.8279 12.2595L61.8827 12.2045L60.5392 11.077L60.4844 11.187C60.0183 12.0945 59.0861 12.6445 58.0717 12.5895C56.2347 12.5895 55.0009 11.132 55.0009 9.23453C54.9461 8.38203 55.2477 7.55703 55.8235 6.92453C56.3992 6.29203 57.1943 5.93453 58.0443 5.90703C59.0313 5.93453 59.9361 6.42953 60.457 7.25453L60.5118 7.30953L61.8553 6.23703L61.8004 6.18203C60.8682 5.05453 59.4974 4.39453 58.0443 4.39453C56.7557 4.39453 55.5493 4.91703 54.6445 5.82453C53.7672 6.70453 53.2737 7.94203 53.2737 9.23453Z" fill="#FF4800"/>
<path d="M121.431 9.97594V13.8809H123.158V9.97594L126.558 4.58594H124.666L122.308 8.32594L120.033 4.58594H118.059L121.431 9.97594Z" fill="#FF4800"/>
<path d="M89.9844 4.58594V13.8534H91.7665V10.4159C91.8762 10.4159 92.0407 10.4709 92.2052 10.4709C94.4534 10.4709 96.0162 9.50844 96.0162 7.55594C96.0162 5.71344 94.6727 4.58594 92.1503 4.58594H89.9844ZM91.7665 5.98844H92.2052C93.6583 5.98844 94.2615 6.53844 94.2615 7.50094C94.2615 8.46344 93.6035 9.01344 92.2052 9.01344C92.0681 9.04094 91.9036 9.01344 91.7665 8.95844V5.98844Z" fill="#FF4800"/>
<path d="M78.277 8.84938L81.1833 14.1294L84.0347 8.84938L85.1588 13.8819H86.9957L84.5556 4.42188L81.2381 10.6919L77.7835 4.42188L75.4805 13.9369H77.2078L78.277 8.84938Z" fill="#FF4800"/>
<path d="M30.8173 10.0869L24.6758 4.42188V13.9369H26.3482V8.43688L32.5171 14.1294V4.58688H30.8173V10.0869Z" fill="#FF4800"/>
<path d="M18.8633 4.58594V13.8809H20.6454V4.58594H18.8633Z" fill="#FF4800"/>
<path d="M16.6141 13.882L12.0903 4.39453L7.56641 13.882H9.34853L10.2533 11.8745H13.7901L14.6401 13.882H16.6141ZM10.9113 10.417L12.0903 7.72203L13.1595 10.417H10.9113Z" fill="#FF4800"/>
<path d="M4.46902 8.95844C5.2367 8.60094 5.7028 7.85844 5.7028 7.00594C5.7028 5.38344 4.41418 4.58594 2.2208 4.58594H0V13.8534H2.63206C4.98995 13.8534 6.27856 12.8909 6.27856 11.1584C6.25114 10.1134 5.51088 9.20594 4.46902 8.95844ZM2.52239 9.92094C3.75617 9.92094 4.46902 10.2509 4.46902 11.2134C4.46902 12.0659 3.811 12.4509 2.52239 12.4509H1.78212V9.92094H2.52239ZM1.78212 8.54594V6.01594H2.11113C3.39974 6.01594 4.05776 6.34594 4.05776 7.30844C4.05776 8.27094 3.39974 8.54594 2.16597 8.54594H1.78212Z" fill="#FF4800"/>
<path d="M45.7589 13.9369H47.8152C47.8152 13.9369 46.2524 12.1494 45.9782 11.8469C46.1976 11.5719 47.541 9.53688 47.541 9.53688H45.8686L45.0734 10.7744L43.6203 9.09688C44.8541 8.43687 45.6218 7.52937 45.6218 6.56687C45.6218 5.27437 44.4977 4.42188 43.0446 4.42188C41.427 4.42188 40.3577 5.38438 40.3577 6.67688C40.4125 7.50188 40.7689 8.29938 41.3721 8.87688C40.4125 9.42688 39.5352 10.2244 39.5352 11.5719C39.5352 13.0294 40.7141 14.1569 42.4414 14.1569C43.4284 14.1844 44.3606 13.7719 45.0186 13.0294L45.7589 13.9369ZM41.9205 6.70437C41.9205 6.42937 42.0301 6.12688 42.2221 5.93438C42.414 5.74188 42.7156 5.63187 42.9897 5.63187C43.2639 5.60437 43.5107 5.71437 43.7026 5.87937C43.8945 6.07187 44.0042 6.31937 44.0042 6.59437C44.0042 7.25437 43.3462 7.72188 42.7156 8.05188C42.3043 7.72188 42.0027 7.22687 41.9205 6.70437ZM44.0316 11.9844C43.6752 12.4244 43.1542 12.6994 42.5785 12.6719C42.2221 12.6994 41.8656 12.5894 41.5915 12.3419C41.3173 12.0944 41.1802 11.7369 41.1802 11.3794C41.235 10.7469 41.5915 10.1694 42.1398 9.86687H42.1946L44.0316 11.9844Z" fill="#FF4800"/>
<path d="M114.247 10.0869L108.105 4.42188V13.8819H109.833V8.43688L115.947 14.1294V4.58688H114.247V10.0869Z" fill="#FF4800"/>
<path d="M105.856 13.882L101.332 4.39453L96.8086 13.882H98.5907L99.4955 11.8745H103.032L103.882 13.882H105.856ZM100.153 10.417L101.332 7.72203L102.402 10.417H100.153Z" fill="#FF4800"/>
<path d="M144.655 9.67438L143.147 2.99188L139.007 8.38188L144.655 9.67438ZM150.001 9.23438C150.001 13.7994 146.327 17.4844 141.776 17.4844C137.225 17.4844 133.551 13.7994 133.551 9.23438C133.551 4.66937 137.225 0.984375 141.776 0.984375C142.215 0.984375 142.626 1.03938 143.065 1.09438L142.379 2.00188H141.776C139.966 1.97438 138.212 2.68938 136.896 3.95438C135.58 5.21938 134.839 6.97937 134.839 8.79437C134.839 12.6444 137.938 15.7519 141.776 15.7519C145.614 15.7519 148.713 12.6444 148.713 8.79437C148.685 5.98938 146.93 3.45938 144.298 2.49688L144.024 1.36937C147.561 2.33187 150.001 5.57688 150.001 9.23438Z" fill="#FF4800"/>
</g>
<defs>
<clipPath id="clip0_2078_36260">
<rect width="150" height="16.5" fill="white" transform="translate(0 0.984375)"/>
</clipPath>
</defs>
</svg>
