<svg width="150" height="62" viewBox="0 0 150 62" fill="none" xmlns="http://www.w3.org/2000/svg">
<g clip-path="url(#clip0_2078_36312)">
<path d="M12.6476 49.1793V35.987H29.8482C31.7875 35.987 33.4739 36.6592 34.7386 37.8356C36.0034 39.012 36.7622 40.6085 36.7622 42.5411C36.7622 44.3898 36.0034 46.0703 34.7386 47.2467C33.4739 48.4231 31.7875 49.1793 29.8482 49.1793H21.2479H12.6476ZM12.6476 25.3995V12.7113H27.0658C28.9207 12.7113 30.5228 13.3835 31.7032 14.4759C32.8836 15.5682 33.5582 17.1648 33.5582 19.0134C33.5582 20.862 32.8836 22.4585 31.7032 23.5509C30.5228 24.7273 28.9207 25.3995 27.0658 25.3995H19.8988H12.6476ZM150 30.9453C150 30.105 150 29.2648 149.916 28.4245C149.831 27.5842 149.747 26.7439 149.578 25.9036H137.774H125.97L122.428 31.5335L118.887 37.1634H137.015C135.919 40.7766 133.895 43.9696 131.029 46.2384C128.246 48.5071 124.705 49.7675 120.573 49.7675C115.43 49.7675 110.877 47.6668 107.589 44.2217C104.3 40.7766 102.277 36.071 102.277 30.9453C102.277 25.9036 104.3 21.2821 107.673 17.837C111.046 14.4759 115.683 12.3752 120.826 12.3752C123.103 12.3752 125.126 12.7113 127.066 13.3835C129.005 14.0557 130.691 14.98 132.293 16.1564L135.413 11.1148L138.617 6.07309C136.172 4.39253 133.474 3.04809 130.523 2.12378C127.572 1.19948 124.368 0.695312 120.911 0.695312C116.358 0.695312 112.226 1.53559 108.6 3.04809C104.975 4.56059 101.771 6.74531 99.0725 9.4342C92.6644 15.8203 90.8094 22.3745 89.5447 28.3405C88.2799 34.3064 87.5211 39.7682 83.1366 44.1377C81.2816 45.9863 79.258 47.3307 77.0658 48.255C74.8735 49.1793 72.5126 49.6835 69.8988 49.6835C64.5869 49.6835 59.8651 47.4988 56.4081 44.1377C52.9511 40.6925 50.8432 36.071 50.8432 30.9453C50.8432 25.9877 52.9511 21.3661 56.4081 17.921C59.8651 14.4759 64.5869 12.3752 69.8988 12.2911C72.0911 12.2911 74.199 12.6273 76.054 13.2995C77.9089 13.8877 79.6796 14.812 81.1973 15.9884L84.4014 10.9467L87.6054 5.90503C85.1602 4.22448 82.4621 2.88003 79.511 2.03976C76.4756 1.11545 73.2715 0.695312 69.8988 0.695312C64.6712 0.695312 59.7808 1.95573 55.4806 4.14045C51.1804 6.32517 47.5548 9.51823 44.8567 13.2995C43.7605 10.0224 41.5683 7.16545 38.5329 5.14879C35.4132 3.13212 31.5346 1.95573 27.2344 1.95573H13.575H0V30.9453V59.9349H30.0169C33.8111 59.9349 37.1838 59.0106 39.9663 57.4981C42.7487 55.9856 45.0253 53.7168 46.543 51.112C49.3255 54.137 52.6981 56.6578 56.5767 58.4224C60.4553 60.187 64.7555 61.1113 69.3929 61.1113C74.8735 61.1113 79.8482 59.8509 84.1484 57.5821C88.4486 55.3134 92.0742 52.0363 94.8567 48.087C97.5548 52.0363 101.18 55.3134 105.481 57.5821C109.781 59.8509 114.84 61.1113 120.32 61.1113C128.668 61.1113 136.088 57.7502 141.4 52.2043C146.796 46.8266 150 39.2641 150 30.9453Z" fill="#FF4800"/>
</g>
<defs>
<clipPath id="clip0_2078_36312">
<rect width="150" height="60.5" fill="white" transform="translate(0 0.695312)"/>
</clipPath>
</defs>
</svg>
