<svg width="150" height="49" viewBox="0 0 150 49" fill="none" xmlns="http://www.w3.org/2000/svg">
<g clip-path="url(#clip0_2078_36226)">
<path d="M148.948 32.8688C148.722 32.8688 148.497 33.0188 148.347 33.3938C146.844 37.7438 144.739 40.3688 143.011 40.3688C142.034 40.3688 141.658 39.2438 141.658 37.5938C141.658 33.3187 144.213 24.2437 145.491 20.0438C145.641 19.5188 145.716 19.0687 145.716 18.6937C145.716 17.4937 145.04 16.8937 143.387 16.8937C141.658 16.8937 139.704 17.5688 137.901 20.7938C137.3 17.9438 135.346 16.7438 132.64 16.7438C129.559 16.7438 126.553 18.7688 124.073 21.9938C121.593 25.2188 118.662 26.2688 116.483 25.7438C118.061 21.9188 118.662 18.9937 118.662 16.8937C118.662 13.5187 117.009 11.4937 114.304 11.4937C110.245 11.4937 107.916 15.3937 107.916 19.4437C107.916 22.5938 109.344 25.8188 112.5 27.3938C109.87 33.3188 106.037 38.7188 104.534 38.7188C102.655 38.7188 102.054 29.4937 102.204 22.8937C102.28 19.1437 102.58 18.9188 102.58 17.7938C102.58 17.1187 102.129 16.6688 100.401 16.6688C96.4178 16.6688 95.1403 20.0437 94.99 23.9437C94.9148 25.4437 94.6894 26.8687 94.3136 28.2937C92.6603 34.2188 89.2034 38.7937 86.9489 38.7937C85.8968 38.7937 85.5962 37.7438 85.5962 36.3938C85.5962 32.1188 88.001 26.7188 88.001 22.1437C88.001 18.7687 86.498 16.6688 83.7174 16.6688C80.4108 16.6688 76.1273 20.5688 71.994 27.8438C73.3467 22.2938 73.8727 16.8937 69.8898 16.8937C68.988 16.8937 68.1613 17.1187 67.4098 17.5687C66.8838 17.7937 66.5832 18.3188 66.5832 18.9188C66.9589 24.8438 61.7735 40.0687 56.8888 40.0687C55.987 40.0687 55.5361 39.0938 55.5361 37.5188C55.5361 33.2438 58.0912 24.1688 59.3687 19.9688C59.519 19.4438 59.5942 18.9937 59.5942 18.5438C59.5942 17.4188 58.9178 16.8187 57.2645 16.8187C55.5361 16.8187 53.5822 17.4937 51.7786 20.7188C51.1022 17.8687 49.2234 16.6688 46.518 16.6688C42.0842 16.6688 37.1994 21.3188 35.02 27.3938C32.0892 35.4938 26.3026 43.3688 18.4118 43.3688C11.2725 43.3688 7.51503 37.4437 7.51503 28.0687C7.51503 14.4937 17.51 3.46875 24.8747 3.46875C28.4068 3.46875 30.0601 5.71875 30.0601 9.16875C30.0601 13.3688 27.7305 15.2437 27.7305 16.8937C27.7305 17.3438 28.1062 17.8688 28.9329 17.8688C32.1643 17.8688 35.9218 14.1188 35.9218 8.94375C35.9218 3.76875 31.8637 0.09375 24.499 0.09375C12.2495 0.09375 0 12.3187 0 28.0687C0 40.5938 6.16232 48.0938 16.8337 48.0938C24.1232 48.0938 30.511 42.4688 33.8928 35.8688C34.2685 41.3438 36.7485 44.1937 40.5812 44.1937C43.9629 44.1937 46.6683 42.1688 48.7725 38.6438C49.5992 42.3188 51.7034 44.1188 54.484 44.1188C57.6403 44.1188 60.3457 42.0938 62.8256 38.4187C62.8256 41.3438 63.4269 44.1188 65.982 44.1188C67.1844 44.1188 68.6122 43.8188 68.8377 42.7688C71.5431 31.7438 78.1563 22.6688 80.1854 22.6688C80.7866 22.6688 80.9369 23.2687 80.9369 23.9437C80.9369 26.9437 78.8327 33.0938 78.8327 36.9938C78.8327 41.2687 80.6363 44.0437 84.3938 44.0437C88.5271 44.0437 92.7355 39.0187 95.516 31.5938C96.4178 38.4938 98.2966 44.0437 101.227 44.0437C104.835 44.0437 111.373 36.3937 115.281 28.2937C116.784 28.5187 119.113 28.4438 121.368 26.8688C120.391 29.2688 119.865 31.8937 119.865 34.4437C119.865 41.9437 123.472 44.0437 126.553 44.0437C129.935 44.0437 132.64 42.0187 134.744 38.4938C135.421 41.6437 137.224 43.9688 140.456 43.9688C145.491 43.9688 149.925 38.7938 149.925 34.5188C150 33.6188 149.474 32.8688 148.948 32.8688ZM43.7375 39.9938C41.7084 39.9938 40.8818 37.9688 40.8818 34.8938C40.8818 29.5688 44.5641 20.6437 48.3968 20.6437C50.0501 20.6437 50.7265 22.5938 50.7265 25.0687C50.7265 30.4688 47.2695 39.9938 43.7375 39.9938ZM113.853 24.0938C112.65 22.6688 112.199 20.6438 112.199 18.9188C112.199 16.7437 113.026 14.9437 113.928 14.9437C114.83 14.9437 115.205 15.8437 115.205 17.1937C115.13 19.2937 114.379 22.5187 113.853 24.0938ZM129.709 39.9938C127.68 39.9938 126.854 37.5938 126.854 34.8938C126.854 29.7188 130.536 20.6437 134.369 20.6437C136.022 20.6437 136.623 22.5938 136.623 25.0687C136.698 30.4688 133.317 39.9938 129.709 39.9938Z" fill="#FF4800"/>
</g>
<defs>
<clipPath id="clip0_2078_36226">
<rect width="150" height="48" fill="white" transform="translate(0 0.09375)"/>
</clipPath>
</defs>
</svg>
