<svg width="150" height="42" viewBox="0 0 150 42" fill="none" xmlns="http://www.w3.org/2000/svg">
<mask id="mask0_2078_36173" style="mask-type:luminance" maskUnits="userSpaceOnUse" x="0" y="6" width="150" height="30">
<path d="M150 6.04297H0V35.0518H150V6.04297Z" fill="white"/>
</mask>
<g mask="url(#mask0_2078_36173)">
<mask id="mask1_2078_36173" style="mask-type:luminance" maskUnits="userSpaceOnUse" x="0" y="6" width="150" height="30">
<path d="M150 6.04297H0V35.0518H150V6.04297Z" fill="white"/>
</mask>
<g mask="url(#mask1_2078_36173)">
<path d="M31.7444 8.47246C29.3186 7.33749 26.7249 6.51264 24.0132 6.04297C23.6801 6.64507 23.291 7.45492 23.0228 8.09915C20.1402 7.66564 17.2841 7.66564 14.4545 8.09915C14.1863 7.45492 13.7883 6.64507 13.4523 6.04297C10.7377 6.51264 8.14094 7.34052 5.71515 8.47847C0.822318 15.8722 -0.504049 23.0823 0.159136 30.1899C3.40432 32.6134 6.5493 34.0855 9.6412 35.0489C10.4046 33.9982 11.0855 32.8813 11.672 31.7042C10.5549 31.2797 9.48498 30.7559 8.47402 30.1478C8.74223 29.9491 9.00457 29.7414 9.25803 29.5276C15.4242 32.4117 22.1238 32.4117 28.2163 29.5276C28.4727 29.7414 28.735 29.9491 29.0003 30.1478C27.9864 30.7589 26.9135 31.2827 25.7964 31.7073C26.3829 32.8813 27.0609 34.0012 27.8272 35.0518C30.9221 34.0885 34.07 32.6164 37.3152 30.1899C38.0933 21.9503 35.9859 14.8065 31.7444 8.47246ZM12.5121 25.8188C10.661 25.8188 9.14307 24.0907 9.14307 21.9864C9.14307 19.8821 10.6286 18.1511 12.5121 18.1511C14.3955 18.1511 15.9135 19.8791 15.881 21.9864C15.884 24.0907 14.3955 25.8188 12.5121 25.8188ZM24.9623 25.8188C23.1112 25.8188 21.5933 24.0907 21.5933 21.9864C21.5933 19.8821 23.0788 18.1511 24.9623 18.1511C26.8457 18.1511 28.3637 19.8791 28.3313 21.9864C28.3313 24.0907 26.8457 25.8188 24.9623 25.8188Z" fill="#FF4800"/>
<path d="M50.3594 13.4453H58.4058C60.3455 13.4453 61.9842 13.7554 63.3286 14.3725C64.6693 14.9896 65.6746 15.8507 66.3409 16.9525C67.0067 18.0543 67.3426 19.3157 67.3426 20.7366C67.3426 22.1275 66.9948 23.3889 66.2993 24.5178C65.6037 25.6497 64.5455 26.5439 63.1221 27.2031C61.6986 27.8624 59.9356 28.1935 57.8284 28.1935H50.3594V13.4453ZM57.7457 24.4456C59.0515 24.4456 60.0568 24.1114 60.758 23.446C61.4597 22.7777 61.8106 21.8686 61.8106 20.7156C61.8106 19.6468 61.4978 18.7949 60.8731 18.1566C60.2484 17.5184 59.3022 17.1963 58.0375 17.1963H55.5204V24.4456H57.7457Z" fill="#FF4800"/>
<path d="M79.3873 28.175C78.2731 27.88 77.2678 27.4525 76.375 26.8895V23.3914C77.05 23.9242 77.9546 24.3638 79.0894 24.71C80.2241 25.0532 81.3209 25.2247 82.3817 25.2247C82.8769 25.2247 83.2514 25.1585 83.5046 25.026C83.7584 24.8936 83.8853 24.734 83.8853 24.5504C83.8853 24.3397 83.8175 24.1651 83.6788 24.0235C83.5401 23.8821 83.2719 23.7646 82.8743 23.6653L80.3983 23.0963C78.9805 22.7592 77.9752 22.2925 77.3772 21.6935C76.7788 21.0974 76.4808 20.3146 76.4808 19.3453C76.4808 18.5294 76.7402 17.822 77.2652 17.2169C77.7866 16.6118 78.5294 16.1452 79.4931 15.817C80.4574 15.4859 81.5829 15.3203 82.8769 15.3203C84.0322 15.3203 85.0904 15.4467 86.0546 15.6996C87.0183 15.9525 87.814 16.2746 88.4479 16.669V19.9775C87.7991 19.5831 87.0563 19.2731 86.2077 19.0382C85.3616 18.8064 84.4925 18.692 83.5961 18.692C82.3021 18.692 81.6568 18.9178 81.6568 19.3664C81.6568 19.5771 81.757 19.7337 81.9574 19.839C82.1577 19.9444 82.526 20.0528 83.0598 20.1672L85.1228 20.5465C86.4702 20.7843 87.475 21.2028 88.1351 21.7988C88.7957 22.3949 89.1255 23.277 89.1255 24.445C89.1255 25.7245 88.5805 26.739 87.4868 27.4916C86.3931 28.2443 84.8428 28.6205 82.8327 28.6205C81.6507 28.6176 80.5015 28.47 79.3873 28.175Z" fill="#FF4800"/>
<path d="M93.9958 27.7295C92.8143 27.1394 91.921 26.3386 91.3256 25.3271C90.7302 24.3156 90.4297 23.1776 90.4297 21.9132C90.4297 20.6489 90.7389 19.5169 91.3579 18.5204C91.977 17.524 92.8847 16.7413 94.0816 16.1723C95.278 15.6033 96.7076 15.3203 98.373 15.3203C100.436 15.3203 102.149 15.7629 103.511 16.6479V20.5044C103.03 20.1672 102.47 19.8932 101.83 19.6825C101.191 19.4718 100.507 19.3664 99.7759 19.3664C98.4968 19.3664 97.4977 19.6042 96.7754 20.0829C96.0532 20.5615 95.691 21.1847 95.691 21.9584C95.691 22.717 96.0413 23.3372 96.743 23.8249C97.4448 24.3096 98.4614 24.5534 99.7965 24.5534C100.483 24.5534 101.161 24.451 101.83 24.2494C102.496 24.0447 103.071 23.7948 103.552 23.4997V27.2297C102.04 28.1569 100.286 28.6205 98.2903 28.6205C96.6105 28.6145 95.1778 28.3195 93.9958 27.7295Z" fill="#FF4800"/>
<path d="M108.656 27.7316C107.465 27.1415 106.557 26.3347 105.932 25.3082C105.308 24.2816 104.992 23.1376 104.992 21.8732C104.992 20.6088 105.305 19.4799 105.932 18.4895C106.56 17.499 107.462 16.7223 108.647 16.1593C109.829 15.5964 111.241 15.3164 112.876 15.3164C114.513 15.3164 115.924 15.5964 117.106 16.1593C118.288 16.7223 119.19 17.493 119.809 18.4774C120.428 19.4619 120.738 20.5908 120.738 21.8702C120.738 23.1346 120.428 24.2786 119.809 25.3051C119.19 26.3317 118.285 27.1385 117.094 27.7285C115.904 28.3186 114.498 28.6136 112.874 28.6136C111.25 28.6136 109.844 28.3216 108.656 27.7316ZM114.925 23.9926C115.426 23.4808 115.68 22.8035 115.68 21.9605C115.68 21.1176 115.429 20.4463 114.925 19.9495C114.424 19.4498 113.74 19.1999 112.874 19.1999C111.992 19.1999 111.302 19.4498 110.799 19.9495C110.298 20.4493 110.047 21.1176 110.047 21.9605C110.047 22.8035 110.298 23.4808 110.799 23.9926C111.3 24.5044 111.992 24.7633 112.874 24.7633C113.74 24.7602 114.424 24.5044 114.925 23.9926Z" fill="#FF4800"/>
<path d="M133.136 16.0995V20.6513C132.611 20.2991 131.933 20.1245 131.093 20.1245C129.994 20.1245 129.145 20.4647 128.555 21.145C127.963 21.8254 127.668 22.8851 127.668 24.318V28.1955H122.613V15.8677H127.565V19.7873C127.839 18.3543 128.285 17.2977 128.897 16.6143C129.508 15.9339 130.297 15.5938 131.258 15.5938C131.986 15.5938 132.611 15.7623 133.136 16.0995Z" fill="#FF4800"/>
<path d="M149.93 13.0234V28.1962H144.875V25.4356C144.447 26.4742 143.799 27.266 142.927 27.8078C142.054 28.3468 140.975 28.6177 139.696 28.6177C138.552 28.6177 137.556 28.3347 136.704 27.7657C135.853 27.1967 135.195 26.417 134.733 25.4266C134.273 24.4361 134.04 23.3163 134.04 22.0639C134.025 20.7724 134.27 19.6134 134.774 18.5868C135.275 17.5602 135.985 16.7595 136.899 16.1844C137.813 15.6094 138.856 15.3204 140.026 15.3204C142.435 15.3204 144.05 16.3891 144.875 18.5236V13.0234H149.93ZM144.12 23.9093C144.636 23.3975 144.893 22.7322 144.893 21.9194C144.893 21.1337 144.642 20.4924 144.141 20.0017C143.64 19.511 142.953 19.2642 142.089 19.2642C141.238 19.2642 140.557 19.514 140.047 20.0137C139.537 20.5135 139.284 21.1607 139.284 21.9615C139.284 22.7623 139.537 23.4156 140.047 23.9213C140.557 24.4271 141.229 24.68 142.069 24.68C142.92 24.677 143.604 24.4211 144.12 23.9093Z" fill="#FF4800"/>
<path d="M71.6022 17.1787C72.9938 17.1787 74.1224 16.1436 74.1224 14.8667C74.1224 13.5898 72.9938 12.5547 71.6022 12.5547C70.2101 12.5547 69.082 13.5898 69.082 14.8667C69.082 16.1436 70.2101 17.1787 71.6022 17.1787Z" fill="#FF4800"/>
<path d="M69.0781 18.7734C70.6223 19.4538 72.5384 19.4839 74.118 18.7734V28.2624H69.0781V18.7734Z" fill="#FF4800"/>
</g>
</g>
</svg>
