<svg width="75" height="11" viewBox="0 0 75 11" fill="none" xmlns="http://www.w3.org/2000/svg">
<g clip-path="url(#clip0_2078_36298)">
<path d="M0 8.34391H1.07681V1.08766L3.23044 8.34391H4.06497L6.21859 1.11453V8.34391H7.34925V0.200781H5.46482L3.66116 6.30141L1.88442 0.200781H0V8.34391ZM11.2258 2.16266C9.61055 2.16266 8.53374 3.29141 8.53374 5.33391C8.53374 7.37641 9.58363 8.47828 11.2258 8.47828C12.841 8.47828 13.9178 7.34953 13.9178 5.33391C13.9178 3.29141 12.8679 2.16266 11.2258 2.16266ZM9.66439 5.33391C9.66439 3.74828 10.3105 3.02266 11.2258 3.02266C12.1411 3.02266 12.7872 3.74828 12.7872 5.33391C12.7872 6.91953 12.1411 7.64516 11.2258 7.64516C10.3374 7.61828 9.66439 6.91953 9.66439 5.33391ZM15.0754 8.34391H16.206V4.25891C16.7714 3.37203 17.3098 3.13016 17.8482 3.13016C17.9828 3.13016 18.1174 3.13016 18.1981 3.18391V2.13578C18.1174 2.10891 17.9828 2.08203 17.8482 2.08203C17.2828 2.08203 16.6368 2.48516 16.206 3.23766V2.27016H15.0754V8.34391ZM20.8902 8.45141C21.5632 8.45141 22.0208 8.18266 22.4785 7.80641V8.23641C22.4785 9.28453 22.1285 9.90266 20.944 9.90266C20.271 9.90266 19.7057 9.66078 19.1942 9.33828L18.7365 10.1983C19.2211 10.5208 20.1364 10.8164 20.9978 10.8164C22.6131 10.8164 23.636 9.90266 23.636 8.39766V2.27016H22.5323V2.78078C22.0747 2.40453 21.5901 2.16266 20.9171 2.16266C19.598 2.16266 18.4135 3.04953 18.4135 5.30703C18.4135 7.59141 19.598 8.45141 20.8902 8.45141ZM19.5172 5.33391C19.5172 3.66766 20.2172 3.02266 21.0248 3.02266C21.5901 3.02266 21.967 3.23766 22.4515 3.66766V7.00016C21.967 7.43016 21.5632 7.61828 21.0248 7.61828C20.2172 7.61828 19.5172 7.00016 19.5172 5.33391ZM26.5704 8.47828C27.1895 8.47828 27.8087 8.18266 28.3202 7.75266C28.4817 8.18266 28.8586 8.39766 29.4777 8.39766C29.6393 8.39766 29.7739 8.37078 29.9085 8.31703V7.51078C29.8277 7.51078 29.7739 7.51078 29.6931 7.51078C29.4239 7.51078 29.3162 7.40328 29.3162 7.13453V4.07078C29.3162 2.91516 28.5625 2.13578 27.2164 2.13578C26.1935 2.13578 25.2513 2.61953 24.6321 3.39891L25.332 4.01703C25.8704 3.39891 26.4896 3.04953 27.0818 3.04953C27.9702 3.04953 28.2125 3.56016 28.2125 4.17828V4.44703L27.0011 4.71578C25.2243 5.11891 24.6321 5.87141 24.6321 6.81203C24.6859 7.67203 25.2782 8.47828 26.5704 8.47828ZM25.7897 6.75828C25.7897 6.19391 26.1127 5.79078 27.1626 5.52203L28.2663 5.25328V7.00016C27.8087 7.37641 27.2972 7.64516 26.7857 7.64516C26.1127 7.67203 25.7897 7.24203 25.7897 6.75828ZM30.9584 8.34391H32.089V3.77516C32.5736 3.26453 33.0851 2.99578 33.6235 2.99578C34.1619 2.99578 34.5657 3.34516 34.5657 3.99016V8.31703H35.6963V4.01703C35.6963 2.75391 34.9964 2.08203 33.9196 2.08203C33.2735 2.08203 32.6543 2.29703 32.089 2.83453V2.27016H30.9584V8.34391ZM41.6188 8.45141C43.1263 8.45141 44.4185 7.61828 44.4185 6.16703C44.4185 4.68891 43.4225 4.23203 41.7265 3.66766C40.7035 3.31828 39.8959 3.04953 39.8959 2.24328C39.8959 1.38328 40.5689 1.03391 41.3765 1.03391C42.238 1.03391 42.9379 1.51766 43.3148 2.32391L44.2301 1.84016C43.6917 0.630781 42.5879 0.0664062 41.3765 0.0664062C39.9497 0.0664062 38.7383 0.872656 38.7383 2.32391C38.7383 3.66766 39.7075 4.20516 41.2688 4.68891C42.3995 5.03828 43.234 5.33391 43.234 6.22078C43.234 7.10766 42.4803 7.45703 41.6188 7.45703C40.6228 7.45703 39.8151 6.97328 39.4113 6.14016L38.4961 6.67766C39.0614 7.83328 40.2459 8.45141 41.6188 8.45141ZM47.5951 7.51078C47.1375 7.51078 46.9221 7.32266 46.9221 6.89266V3.13016H48.0528V2.27016H46.9221V0.603906H45.7915V2.27016H44.7954V3.13016H45.7915V7.08078C45.7915 7.94078 46.276 8.39766 47.3528 8.39766C47.5682 8.39766 47.7836 8.37078 48.0528 8.31703V7.51078C47.8643 7.51078 47.7836 7.51078 47.5951 7.51078ZM50.6371 8.47828C51.2563 8.47828 51.8755 8.18266 52.3869 7.75266C52.5485 8.18266 52.9253 8.39766 53.5445 8.39766C53.706 8.39766 53.8406 8.37078 53.9752 8.31703V7.51078C53.8945 7.51078 53.8406 7.51078 53.7599 7.51078C53.4907 7.51078 53.383 7.40328 53.383 7.13453V4.07078C53.383 2.91516 52.6292 2.13578 51.2832 2.13578C50.2602 2.13578 49.318 2.61953 48.6988 3.39891L49.3988 4.01703C49.9372 3.39891 50.5564 3.04953 51.1486 3.04953C52.037 3.04953 52.2793 3.56016 52.2793 4.17828V4.44703L51.0678 4.71578C49.2911 5.11891 48.6988 5.87141 48.6988 6.81203C48.7527 7.67203 49.3449 8.47828 50.6371 8.47828ZM49.8564 6.75828C49.8564 6.19391 50.1795 5.79078 51.2294 5.52203L52.3331 5.25328V7.00016C51.8754 7.37641 51.364 7.64516 50.8525 7.64516C50.1795 7.67203 49.8564 7.24203 49.8564 6.75828ZM55.0251 8.34391H56.1558V3.77516C56.6403 3.26453 57.1518 2.99578 57.6902 2.99578C58.2286 2.99578 58.6325 3.34516 58.6325 3.99016V8.31703H59.7631V4.01703C59.7631 2.75391 59.0632 2.08203 57.9864 2.08203C57.3403 2.08203 56.7211 2.29703 56.1558 2.83453V2.27016H55.0251V8.34391ZM62.8859 7.48391C62.4821 7.48391 62.3205 7.32266 62.3205 6.91953V0.200781H61.1899V7.05391C61.1899 7.88703 61.6475 8.37078 62.6436 8.37078C62.8589 8.37078 63.0743 8.34391 63.2897 8.29016V7.43016C63.1551 7.48391 63.0205 7.48391 62.8859 7.48391ZM68.916 7.10766L68.0815 6.62391C67.7046 7.32266 67.1931 7.64516 66.5201 7.64516C65.6317 7.64516 64.9856 7.02703 64.9049 5.60266H68.9698V5.19953C68.9698 3.21078 67.9469 2.13578 66.4393 2.13578C64.851 2.13578 63.7742 3.23766 63.7742 5.30703C63.7742 7.40328 64.878 8.45141 66.4932 8.45141C67.6777 8.47828 68.3776 7.99453 68.916 7.10766ZM66.4663 2.99578C67.2469 2.99578 67.8123 3.53328 67.92 4.76953H64.9587C65.0664 3.53328 65.6586 2.99578 66.4663 2.99578ZM70.5043 9.92953C70.2889 9.92953 70.0736 9.87578 69.8044 9.76828L69.5083 10.6283C69.8582 10.7895 70.2082 10.8702 70.5582 10.8702C71.5273 10.8702 72.0388 10.3864 72.4426 9.31141L74.9731 2.29703H73.8424L72.2272 7.08078L70.5312 2.27016H69.3467L71.6619 8.50516L71.5004 8.93516C71.2042 9.63391 71.0158 9.92953 70.5043 9.92953Z" fill="#FF4800"/>
</g>
<defs>
<clipPath id="clip0_2078_36298">
<rect width="75" height="10.75" fill="white" transform="translate(0 0.09375)"/>
</clipPath>
</defs>
</svg>
