<svg width="150" height="50" viewBox="0 0 150 50" fill="none" xmlns="http://www.w3.org/2000/svg">
<g clip-path="url(#clip0_2078_36162)">
<path d="M22.3697 22.371H13.1591V25.0012H22.3697V35.5289H7.89597L2.63281 30.2657V2.63281H13.1591V11.8433H22.3697V22.371Z" fill="#FF4800"/>
<path d="M61.8421 35.5293H30.2632L25 30.2661V11.8438H35.5263V25.0016H38.1579V11.8438H48.6842V25.0016H51.3158V11.8438H61.8421V35.5293Z" fill="#FF4800"/>
<path d="M74.999 11.8438H64.4727V35.528H74.999V11.8438Z" fill="#FF4800"/>
<path d="M74.999 2.63281H64.4727V9.21176H74.999V2.63281Z" fill="#FF4800"/>
<path d="M97.3697 22.371H88.1591V25.0012H97.3697V35.5289H82.896L77.6328 30.2657V2.63281H88.1591V11.8433H97.3697V22.371Z" fill="#FF4800"/>
<path d="M121.053 22.3714H110.526V25.0016H121.053V35.5293H105.263L100 30.2661V17.1082L105.263 11.8438H121.053V22.3714Z" fill="#FF4800"/>
<path d="M147.368 35.5289H136.841V22.371H134.21V35.5289H123.684V2.63281H134.21V11.8433H142.105L147.368 17.1078V35.5289Z" fill="#FF4800"/>
<path d="M143.421 9.21053H136.842V0H122.396L115.753 9.21053H103.947L100 13.1579V9.21053H90.7895V0H61.8421V9.21053H21.1184L14.4737 0H0V31.5789L18.4211 50H36.8421V44.7368L42.1053 50H77.6316V44.7368L82.8947 50H100V44.7368L105.263 50H138.158L150 38.1579V15.7895L143.421 9.21053ZM22.3684 22.3684H13.1579V25H22.3684V35.5263H7.89474L2.63158 30.2632V2.63158H13.1579V11.8421H22.3684V22.3684ZM61.8421 35.5263H30.2632L25 30.2632V11.8421H35.5263V25H38.1579V11.8421H48.6842V25H51.3158V11.8421H61.8421V35.5263ZM75 35.5263H64.4737V11.8421H75V35.5263ZM75 9.21053H64.4737V2.63158H75V9.21053ZM97.3684 22.3684H88.1579V25H97.3684V35.5263H82.8947L77.6316 30.2632V2.63158H88.1579V11.8421H97.3684V22.3684ZM121.053 22.3684H110.526V25H121.053V35.5263H105.263L100 30.2632V17.1053L105.263 11.8421H121.053V22.3684ZM147.368 35.5263H136.842V22.3684H134.211V35.5263H123.684V2.63158H134.211V11.8421H142.105L147.368 17.1053V35.5263Z" fill="#FF4800" fill-opacity="0.4"/>
</g>
<defs>
<clipPath id="clip0_2078_36162">
<rect width="150" height="50" fill="white"/>
</clipPath>
</defs>
</svg>
