<svg width="150" height="55" viewBox="0 0 150 55" fill="none" xmlns="http://www.w3.org/2000/svg">
<g clip-path="url(#clip0_2078_36246)">
<path d="M87.7573 33.3192C87.7573 44.5747 81.6156 45.9964 75.4739 45.9964C64.962 45.9964 62.7179 40.5464 62.7179 32.8453V10.9268H58.8203V8.79423H73.5841V10.9268H69.4502V32.1344C69.4502 39.5986 71.34 43.3899 76.7731 43.3899C82.2061 43.3899 84.9227 40.6649 84.9227 32.8453V10.9268H81.025V8.79423H91.5368V10.9268H87.9935L87.7573 33.3192ZM98.0329 43.3899V10.9268H93.8991V8.79423H110.198C117.167 8.79423 120.592 12.704 120.592 17.3247C120.592 22.3007 116.104 25.0257 112.206 25.8551C119.883 26.566 122.009 31.542 122.009 35.2149C122.009 42.679 115.631 45.5225 109.49 45.5225H93.6628V43.3899H98.0329ZM113.978 17.7986C113.978 14.3627 112.206 10.9268 108.308 10.9268H104.057V25.0257H107.836C112.088 25.0257 113.978 21.5899 113.978 17.7986ZM115.395 35.3334C115.395 30.4757 113.269 27.1584 108.427 27.1584H104.293V43.5084H107.718C112.797 43.3899 115.395 40.3094 115.395 35.3334ZM138.427 10.4529C134.529 10.4529 132.049 12.704 132.049 16.7323C132.049 20.2866 135.946 22.0638 139.726 23.367C141.97 24.1964 144.805 25.2627 146.812 27.0399C148.938 29.054 150.12 31.779 150.001 35.2149C149.883 41.6127 145.395 45.9964 137.482 45.9964C134.529 45.9964 129.923 45.2855 127.206 43.7453L126.852 34.1486H129.214C129.45 40.6649 132.403 43.9823 137.718 43.9823C141.97 43.9823 144.332 41.1388 144.332 36.7551C144.332 32.9638 141.261 31.4236 136.537 29.7649C135.001 29.291 131.931 28.1062 129.805 25.9736C127.915 24.0779 126.97 21.5899 126.97 19.1018C126.97 11.6377 132.285 8.32031 138.899 8.32031C141.497 8.32031 145.395 9.26814 147.757 10.5714L147.994 18.9834H145.631C145.277 13.0594 142.679 10.4529 138.427 10.4529Z" fill="#FF4800"/>
<path d="M40.2756 16.2576L39.3307 17.087L40.3937 20.5228L37.3228 18.8641L36.2598 19.6935L39.685 21.5891L36.0236 24.5511L35.0787 23.2478L36.378 22.1815L35.4331 20.9967L34.1339 22.063L33.0709 20.6413L34.3701 19.575L33.4252 18.2717L26.811 23.8402L33.189 28.9348L34.3701 27.513C35.1969 27.513 35.7874 28.2239 36.1417 28.9348L34.9606 30.3565L35.6693 30.9489C37.2047 29.5272 39.3307 28.5793 41.4567 28.5793C45.9449 28.5793 49.3701 32.2522 49.3701 36.7543C49.3701 38.1761 49.0157 39.8348 48.189 41.138L49.3701 42.0859C49.3701 42.9152 48.5433 43.863 47.7165 44.1L46.5354 43.1522C45 44.6924 42.874 45.5217 40.748 45.5217C36.2598 45.5217 32.8346 41.9674 32.8346 37.4652C32.8346 36.0435 33.3071 34.5033 33.8976 33.2L33.0709 32.6076L31.8898 34.1478C31.063 34.0293 30.3543 33.437 30.1181 32.6076L31.2992 31.3043L25.9843 26.8022V33.9109H27.7559C27.9921 34.2663 28.1102 34.6217 28.1102 34.9772C28.1102 35.3326 27.9921 35.8065 27.7559 36.162H25.9843V36.9913C29.8819 37.7022 33.189 41.0196 33.189 45.0478C33.189 49.1946 30 52.512 25.9843 53.2228V54.6446C25.6299 54.8815 25.1575 55 24.685 55C24.2126 55 23.622 54.8815 23.2677 54.6446V53.2228C19.252 52.6304 16.1811 49.1946 16.1811 45.0478C16.1811 41.0196 19.252 37.7022 23.2677 37.1098V36.162H21.378C21.1417 35.8065 21.0236 35.4511 21.0236 34.9772C21.0236 34.5033 21.1417 34.1478 21.378 33.7924H23.2677V26.6837L17.8346 31.1859L19.0157 32.4891C18.7795 33.3185 18.0709 33.9109 17.2441 34.0293L16.063 32.4891L15.3543 33.2C16.063 34.5033 16.5354 35.925 16.5354 37.4652C16.5354 41.9674 12.9921 45.5217 8.62205 45.5217C6.49606 45.5217 4.37008 44.6924 2.83465 43.1522L1.65354 44.1C0.944882 43.863 0.11811 42.9152 0 42.0859L1.1811 41.138C0.472441 39.8348 0 38.2946 0 36.7543C0 32.2522 3.4252 28.5793 7.91339 28.5793C10.0394 28.5793 12.1654 29.5272 13.7008 30.9489L14.4094 30.475L13.2283 29.0533C13.4646 28.3424 14.1732 27.75 15 27.6315L16.1811 29.0533L22.5591 23.9587L15.9449 18.3902L15 19.6935L16.2992 20.7598L15.3543 22.063L14.0551 20.9967L13.1102 22.1815L14.1732 23.0109L13.2283 24.3141L9.68504 21.3522L12.9921 19.4565L12.0472 18.6272L8.97638 20.2859L9.92126 17.087L8.97638 16.2576L7.79528 19.9304L4.13386 16.9685L5.07874 15.7837L6.37795 16.85L7.44095 15.6652L6.14173 14.4804L7.08661 13.2957L8.38583 14.2435L9.33071 13.0587L6.49606 10.9261C6.73228 9.97826 7.32283 9.26739 8.26772 8.675L23.2677 20.9967V12.8217H21.7323V14.362H20.1969V12.8217H18.6614V14.362H17.126V9.7413L20.6693 11.2815V9.97826L17.3622 8.55652L20.6693 7.25326V6.06848L17.126 7.49022V2.75109H18.6614V4.40978H20.1969V2.75109H21.7323V4.40978H23.2677V0.736957C23.7402 0.618478 24.2126 0.5 24.685 0.5C25.1575 0.5 25.6299 0.618478 25.9843 0.736957V20.9967L40.9843 8.675C41.811 9.26739 42.4016 9.97826 42.7559 10.9261L39.9213 13.1772L40.8661 14.362L42.1654 13.4141L43.1102 14.5989L41.811 15.7837L42.7559 16.9685L44.0551 15.9022L45 17.087L41.3386 20.0489L40.2756 16.2576ZM9.68504 38.5315C9.68504 39.8348 10.6299 40.6641 11.811 40.7826L9.92126 42.2043C8.62205 41.7304 7.44095 40.1902 7.44095 38.7685C7.44095 38.2946 7.55906 38.0576 7.67717 37.7022H7.32283C5.55118 37.7022 4.13386 36.0435 3.77953 34.3848L5.7874 32.8446V33.437C5.7874 34.5033 6.85039 35.4511 7.91339 35.4511C9.09449 35.4511 10.1575 34.5033 10.1575 33.3185C10.1575 31.8967 9.09449 30.9489 7.67717 30.9489C5.07874 30.9489 2.48031 33.5554 2.48031 36.8728C2.48031 37.8207 2.71654 38.7685 3.07087 39.5978L4.25197 38.65C5.07874 39.0054 5.66929 39.8348 5.90551 40.7826L4.72441 41.7304C5.90551 42.6783 7.32283 43.1522 8.74016 43.1522C11.811 43.1522 14.1732 40.6641 14.1732 38.5315C14.1732 37.2283 13.3465 36.162 12.0472 36.162C10.6299 36.3989 9.68504 37.3467 9.68504 38.5315ZM25.748 43.2707C25.748 44.4554 26.6929 45.4033 27.874 45.4033C28.7008 45.4033 29.0551 45.0478 29.6457 44.5739V47.062C29.0551 47.4174 28.4646 47.5359 27.7559 47.5359C26.4567 47.5359 25.3937 47.1804 24.685 45.9957C23.9764 47.1804 22.7953 47.5359 21.4961 47.5359C20.9055 47.5359 20.1969 47.4174 19.6063 47.062V44.5739C20.1969 45.1663 20.5512 45.4033 21.378 45.4033C22.5591 45.4033 23.5039 44.4554 23.5039 43.2707C23.5039 42.0859 22.7953 41.138 21.4961 41.138C19.252 41.138 18.3071 43.2707 18.3071 45.2848C18.3071 48.1283 20.4331 50.6163 23.1496 51.0902V49.6685C23.622 49.4315 24.0945 49.4315 24.4488 49.4315C24.9213 49.4315 25.3937 49.4315 25.8661 49.6685V51.0902C28.4646 50.7348 30.7087 48.0098 30.7087 45.2848C30.7087 43.2707 29.8819 41.138 27.5197 41.138C26.5748 41.0196 25.748 42.0859 25.748 43.2707ZM39.2126 33.437C39.2126 34.5033 40.3937 35.5696 41.4567 35.5696C42.5197 35.5696 43.5827 34.6217 43.5827 33.5554V32.963L45.4724 34.5033C45.1181 36.3989 43.4646 37.9391 41.5748 37.8207C41.6929 38.1761 41.6929 38.5315 41.6929 38.887C41.6929 40.3087 40.5118 41.8489 39.2126 42.3228L37.4409 40.7826C38.622 40.6641 39.5669 39.8348 39.5669 38.5315C39.5669 37.2283 38.5039 36.3989 37.3228 36.3989C36.0236 36.3989 35.1968 37.4652 35.1968 38.7685C35.1968 40.3087 37.0866 43.3891 40.748 43.3891C42.1654 43.3891 43.5827 42.9152 44.6457 41.9674L43.4646 41.0196C43.7008 40.0717 44.2913 39.2424 45.1181 38.887L46.2992 39.8348C46.7717 39.0054 47.0079 38.0576 47.0079 37.1098C47.0079 34.5033 45 31.1859 41.811 31.1859C40.3937 31.1859 39.2126 32.0152 39.2126 33.437Z" fill="#FF4800"/>
</g>
<defs>
<clipPath id="clip0_2078_36246">
<rect width="150" height="54.5" fill="white" transform="translate(0 0.5)"/>
</clipPath>
</defs>
</svg>
